<svg width="343" height="227" viewBox="0 0 343 227" fill="none" xmlns="http://www.w3.org/2000/svg">
<g clip-path="url(#clip0_33_7)">
<rect width="432" height="322" rx="20" fill="#FF0505"/>
<path d="M55.9531 -16.6514C54.5724 -19.0429 55.3918 -22.1009 57.7833 -23.4816L79.5538 -36.0508C81.8979 -37.4042 84.8934 -36.6464 86.312 -34.3412L137.81 49.3402C139.86 52.6715 137.464 56.9607 133.552 56.9607L101.34 56.9607C99.5536 56.9607 97.9029 56.0077 97.0097 54.4607L55.9531 -16.6514Z" fill="#0B0B0B"/>
<path d="M194.953 -16.6514C193.572 -19.0429 194.392 -22.1009 196.783 -23.4816L218.316 -35.9135C220.753 -37.3205 223.871 -36.4401 225.212 -33.9661L270.498 49.5779C272.304 52.9095 269.892 56.9607 266.102 56.9607L240.34 56.9607C238.554 56.9607 236.903 56.0077 236.01 54.4607L194.953 -16.6514Z" fill="#0B0B0B"/>
<path d="M127.953 -16.6514C126.572 -19.0429 127.392 -22.1009 129.783 -23.4816L151.438 -35.9842C153.828 -37.3639 156.884 -36.5468 158.266 -34.1585L206.657 49.4562C208.586 52.7895 206.181 56.9607 202.329 56.9607L173.34 56.9607C171.554 56.9607 169.903 56.0077 169.01 54.4607L127.953 -16.6514Z" fill="#0B0B0B"/>
</g>
<rect x="0.5" y="0.5" width="342" height="226" rx="19.5" stroke="black"/>
<defs>
<clipPath id="clip0_33_7">
<rect width="343" height="227" rx="20" fill="white"/>
</clipPath>
</defs>
</svg>
